[center]

[img]http://webucks.net/wp-content/uploads/2011/11/Happy-Feet-Two-2011-movie-poster.jpg[/img]

[code]
UUUUUUUU     UUUUUUUU           SSSSSSSSSSSSSSS         MMMMMMMM               MMMMMMMM     
U::::::U     U::::::U         SS:::::::::::::::S        M:::::::M             M:::::::M     
U::::::U     U::::::U        S:::::SSSSSS::::::S        M::::::::M           M::::::::M     
UU:::::U     U:::::UU        S:::::S     SSSSSSS        M:::::::::M         M:::::::::M     
U:::::U     U:::::U         S:::::S                    M::::::::::M       M::::::::::M     
U::::     D:::::U         S:::::S                    M:::::::::::M     M:::::::::::M     
U::::     D:::::U          S::::SSSS                 M:::::::M::::M   M::::M:::::::M     
U::::     D:::::U           SS::::::SSSSS            M::::::M M::::M M::::M M::::::M     
U::::     D:::::U             SSS::::::::SS          M::::::M  M::::M::::M  M::::::M     
U::::     D:::::U                SSSSSS::::S         M::::::M   M:::::::M   M::::::M     
U::::     D:::::U                     S:::::S        M::::::M    M:::::M    M::::::M     
U::::::U   U::::::U                     S:::::S        M::::::M     MMMMM     M::::::M     
U:::::::UUU:::::::U         SSSSSSS     S:::::S        M::::::M               M::::::M     
 UU:::::::::::::UU   ...... S::::::SSSSSS:::::S ...... M::::::M               M::::::M     
   UU:::::::::UU     .::::. S:::::::::::::::SS  .::::. M::::::M               M::::::M     
     UUUUUUUUU       ......  SSSSSSSSSSSSSSS    ...... MMMMMMMM               MMMMMMMM   

[/code]

     Happy Feet 2 2011 CAM XViD - U.S.M


SOURCES:

TNZ
FYA

IMDB:
 
http://www.imdb.com/title/tt1402488/

Video
ID                               : 0
Format                           : MPEG-4 Visual
Format profile                   : Advanced Simple@L5
Format settings, BVOP            : 2
Format settings, QPel            : No
Format settings, GMC             : No warppoints
Format settings, Matrix          : Default (H.263)
Muxing mode                      : Packed bitstream
Codec ID                         : XVID
Codec ID/Hint                    : XviD
Duration                         : 1h 27mn
Bit rate                         : 1 485 Kbps
Width                            : 720 pixels
Height                           : 304 pixels
Display aspect ratio             : 2.35:1
Frame rate                       : 23.976 fps
Color space                      : YUV
Chroma subsampling               : 4:2:0
Bit depth                        : 8 bits
Scan type                        : Progressive
Compression mode                 : Lossy
Bits/(Pixel*Frame)               : 0.283
Stream size                      : 930 MiB (92%)
Writing library                  : XviD 64

Audio
ID                               : 1
Format                           : MPEG Audio
Format version                   : Version 1
Format profile                   : Layer 3
Codec ID                         : 55
Codec ID/Hint                    : MP3
Duration                         : 1h 27mn
Bit rate mode                    : Constant
Bit rate                         : 128 Kbps
Channel(s)                       : 2 channels
Sampling rate                    : 44.1 KHz
Compression mode                 : Lossy
Stream size                      : 80.1 MiB (8%)
Alignment                        : Split accross interleaves
Interleave, duration             : 42 ms (1.00 video frame)
Interleave, preload duration     : 500 ms
Writing library                  : LAMEUUUJ$


WORKDONE:

Thanks to FYA for the files they used ....the video is in 3d first min or so then its all go ...well non 3d lol.
The video is ok but nothing special,but get away with it more being a cam...
Filtered the video but increasing brightness,contrast,chroma and running a HQ video smoother and finally adding some
sharpness back to it.
Audio we stripped off FYA release and really cleaned it up using a noise and hiss removal and them remastering all the
EQ levels.
Overall still pretty poo ....but only sources out atm.
Check sample for Q.

SCREENIES:

[img]http://i.imgur.com/VgMjF.png[/img]
[img]http://i.imgur.com/VgMjF.png[/img]
[img]http://i.imgur.com/GDV9H.png[/img]
[img]http://i.imgur.com/UJ4kd.png[/img]

[/center]